<svg xmlns="http://www.w3.org/2000/svg" viewBox="0 0 64 64" role="img" aria-label="Docker">
  <circle cx="32" cy="32" r="29" fill="#EFF8FF" stroke="#D5EBFF"/>
  <g fill="#2496ED">
    <rect x="12" y="25" width="8" height="7" rx="1"/><rect x="22" y="25" width="8" height="7" rx="1"/><rect x="32" y="25" width="8" height="7" rx="1"/>
    <rect x="22" y="16" width="8" height="7" rx="1"/><rect x="32" y="16" width="8" height="7" rx="1"/><rect x="42" y="25" width="8" height="7" rx="1"/>
    <path d="M8 34h45c-1 13-10 20-24 20S10 46 8 34Z"/>
    <path d="M48 31c4-7 10-4 11-1-2 3-6 5-11 4v-3Z"/>
  </g>
  <circle cx="18" cy="39" r="1.5" fill="#fff"/>
</svg>
